<?xml version="1.0" encoding="UTF-8" standalone="no"?>
<svg
   xmlns:dc="http://purl.org/dc/elements/1.1/"
   xmlns:cc="http://creativecommons.org/ns#"
   xmlns:rdf="http://www.w3.org/1999/02/22-rdf-syntax-ns#"
   xmlns:svg="http://www.w3.org/2000/svg"
   xmlns="http://www.w3.org/2000/svg"
   width="210mm"
   height="210mm"
   viewBox="0 0 210 210"
   version="1.1"
   id="svg8">
  <defs
     id="defs2" />
  <metadata
     id="metadata5">
    <rdf:RDF>
      <cc:Work
         rdf:about="">
        <dc:format>image/svg+xml</dc:format>
        <dc:type
           rdf:resource="http://purl.org/dc/dcmitype/StillImage" />
        <dc:title></dc:title>
      </cc:Work>
    </rdf:RDF>
  </metadata>
  <g
     id="layer3" />
  <g
     id="layer2">
    <path
       style="fill:#ffffff;fill-opacity:1;stroke:#000000;stroke-width:0.264583px;stroke-linecap:butt;stroke-linejoin:miter;stroke-opacity:0"
       d="m 42.22859,67.084642 v -6.68173 c 0,0 0.534537,-11.75986 10.958049,-12.02713 10.423512,-0.26727 102.364231,0 102.364231,0 0,0 11.49258,-1.60361 11.49258,15.7689 V 156.8872 h -14.16528 c 0,0 -7.21628,-2.40541 -18.4416,-2.40541 -11.22532,0 -18.4416,2.67268 -22.45064,2.67268 H 82.31902 c 0,0 -2.13816,-1.87089 -5.879933,-1.87089 -3.741772,0 -10.423512,1.87089 -17.105249,1.87089 -6.681737,0 -10.423511,-1.60362 -10.423511,-1.60362 l -6.1472,-1.33635 v -22.71789 z"
       id="path32-7" />
  </g>
  <g
     id="layer1">
    <path
       id="path32"
       style="fill:#191919;fill-opacity:1;stroke:#000000;stroke-width:0.405667px;stroke-linecap:butt;stroke-linejoin:miter;stroke-opacity:0"
       d="M 82.434417,19.225645 C 55.314116,19.213637 31.745035,19.25181 25.751917,19.405502 9.7702669,19.815286 8.9507945,37.845933 8.9507945,37.845933 V 48.09062 l 0.1640073,19.761227 c 1.6053512,-0.370049 5.2316112,-1.566025 7.3582662,-5.110459 2.786155,-4.643588 3.405045,-5.261773 4.024191,-7.428783 0.619146,-2.167005 3.095457,-9.287562 6.191177,-9.287562 0.773932,0 1.470625,-0.09651 2.157485,-0.101417 v -8.11e-4 c 2.060595,-0.01452 4.034804,0.797793 7.749674,7.53099 4.953157,8.977605 6.19039,8.358966 6.19039,8.358966 0,0 3.09626,0.927932 4.024979,-2.167784 0.928718,-3.095733 3.095785,-13.001387 7.739374,-13.31096 4.643588,-0.309573 8.35826,-2.67e-4 11.763557,8.358175 3.405297,8.358467 5.572104,15.47917 11.763561,18.26533 6.191449,2.786139 13.31173,4.333221 15.478744,2.166198 2.166998,-2.166993 4.333984,-8.358032 4.333984,-11.453765 0,-3.095712 2.167196,-8.66819 6.810776,-8.977763 4.64359,-0.30956 6.19106,1.857194 9.28677,1.857194 3.09573,0 6.19171,-0.309017 10.21616,1.857989 4.02444,2.167006 6.50098,-0.619681 6.50098,10.215368 -3.94021,-1.532862 -5.26254,-1.238299 -9.59657,0 -4.33401,1.238267 -8.35908,2.476855 -9.59736,8.04917 -1.2383,5.572295 -6.191,13.930316 -15.787746,15.787749 -9.596742,1.857429 -17.645738,0.310587 -17.645738,0.310587 0,0 -0.690827,15.296801 4.881476,23.345681 l 0.381109,6.99222 5.263371,12.69215 h -4.643779 c 0,0 -2.786456,-9.90645 -5.882177,-15.47874 -3.095732,-5.57232 -2.476789,-8.66797 -2.476789,-8.66797 0,0 -5.261972,-14.240446 -12.072567,-15.478745 -6.81059,-1.238284 -10.216159,9.287565 -10.216159,9.287565 0,0 -3.405379,6.19081 -5.572381,8.97697 -2.16701,2.78616 -0.309796,3.09559 -0.309796,3.09559 0,0 -6.396168,7.72878 -6.086596,18.25424 l -4.745987,0.007 c 0,0 3.712578,-14.23557 3.403009,-18.56958 0,0 4.644007,-6.19126 4.95358,-9.59657 0.309569,-3.40529 4.952784,-10.525959 4.952784,-10.525959 0,0 -16.717064,2.476964 -27.552101,-7.119778 -6.191453,-0.309573 -4.518266,6.181315 -7.119778,8.977767 -1.783216,1.91684 -3.895445,4.41454 -5.8140366,5.70707 l 0.3502045,42.17911 v 34.83192 l 9.4246341,2.04894 c 0,0 5.737223,2.45857 15.981868,2.45857 10.244646,0 20.489551,-2.8682 26.226551,-2.8682 5.737005,0 9.015003,2.8682 9.015003,2.8682 h 45.486241 c 6.14678,0 17.2113,-4.09709 34.4223,-4.09709 17.21101,0 28.2747,3.68746 28.2747,3.68746 h 21.71904 V 43.583116 c 0,-26.636068 -17.62117,-24.177614 -17.62117,-24.177614 0,0 -55.06508,-0.159846 -100.265593,-0.179857 z" />
    <rect
       style="fill:#ffffff;fill-opacity:1;stroke:none;stroke-width:0.405667;stroke-opacity:0"
       id="rect980"
       width="118.01833"
       height="14.752291"
       x="17.966318"
       y="146.8488" />
  </g>
</svg>
