<?xml version="1.0" encoding="UTF-8" standalone="no"?>
<svg
   xmlns:dc="http://purl.org/dc/elements/1.1/"
   xmlns:cc="http://creativecommons.org/ns#"
   xmlns:rdf="http://www.w3.org/1999/02/22-rdf-syntax-ns#"
   xmlns:svg="http://www.w3.org/2000/svg"
   xmlns="http://www.w3.org/2000/svg"
   xmlns:xlink="http://www.w3.org/1999/xlink"
   width="210mm"
   height="210mm"
   viewBox="0 0 210 210"
   version="1.1"
   id="svg8">
  <defs
     id="defs2">
    <linearGradient
       id="linearGradient1064">
      <stop
         style="stop-color:#5c2fe3;stop-opacity:1"
         offset="0"
         id="stop1060" />
      <stop
         style="stop-color:#c165dd;stop-opacity:1"
         offset="1"
         id="stop1062" />
    </linearGradient>
    <linearGradient
       id="linearGradient1054">
      <stop
         style="stop-color:#fc76b3;stop-opacity:1"
         offset="0"
         id="stop1050" />
      <stop
         style="stop-color:#facd68;stop-opacity:1"
         offset="1"
         id="stop1052" />
    </linearGradient>
    <linearGradient
       id="linearGradient1044">
      <stop
         style="stop-color:#b588f7;stop-opacity:1"
         offset="0"
         id="stop1040" />
      <stop
         style="stop-color:#1de5e2;stop-opacity:1"
         offset="1"
         id="stop1042" />
    </linearGradient>
    <linearGradient
       id="linearGradient1034">
      <stop
         style="stop-color:#1153fc;stop-opacity:1"
         offset="0"
         id="stop1030" />
      <stop
         style="stop-color:#5581f1;stop-opacity:1"
         offset="1"
         id="stop1032" />
    </linearGradient>
    <linearGradient
       id="linearGradient1024">
      <stop
         style="stop-color:#ffcb52;stop-opacity:1"
         offset="0"
         id="stop1020" />
      <stop
         style="stop-color:#ff7b02;stop-opacity:1"
         offset="1"
         id="stop1022" />
    </linearGradient>
    <linearGradient
       xlink:href="#linearGradient1024"
       id="linearGradient1026"
       x1="27.214287"
       y1="75.217262"
       x2="76.351189"
       y2="20.221725"
       gradientUnits="userSpaceOnUse" />
    <linearGradient
       xlink:href="#linearGradient1034"
       id="linearGradient1036"
       x1="87.314049"
       y1="96.225647"
       x2="163.85268"
       y2="21.639137"
       gradientUnits="userSpaceOnUse" />
    <linearGradient
       xlink:href="#linearGradient1044"
       id="linearGradient1046"
       x1="190.5"
       y1="43.669724"
       x2="118.30655"
       y2="155.92865"
       gradientUnits="userSpaceOnUse" />
    <linearGradient
       xlink:href="#linearGradient1054"
       id="linearGradient1056"
       x1="8.6934528"
       y1="180.10565"
       x2="60.85416"
       y2="63.311008"
       gradientUnits="userSpaceOnUse" />
    <linearGradient
       xlink:href="#linearGradient1064"
       id="linearGradient1066"
       x1="136.82738"
       y1="195.60268"
       x2="94.17926"
       y2="124.2906"
       gradientUnits="userSpaceOnUse" />
  </defs>
  <metadata
     id="metadata5">
    <rdf:RDF>
      <cc:Work
         rdf:about="">
        <dc:format>image/svg+xml</dc:format>
        <dc:type
           rdf:resource="http://purl.org/dc/dcmitype/StillImage" />
        <dc:title></dc:title>
      </cc:Work>
    </rdf:RDF>
  </metadata>
  <g
     id="layer3">
    <path
       style="fill:url(#linearGradient1066);fill-opacity:1;stroke:none;stroke-width:0.264583px;stroke-linecap:butt;stroke-linejoin:miter;stroke-opacity:1"
       d="m 99.407738,124.16518 -29.482145,39.87648 66.901787,31.56101 -8.50446,-59.34226 -27.97024,-11.90624 z"
       id="path1058" />
    <path
       style="fill:url(#linearGradient1056);fill-opacity:1;stroke:none;stroke-width:0.264583px;stroke-linecap:butt;stroke-linejoin:miter;stroke-opacity:1"
       d="m 41.955357,61.421131 -29.293155,52.349699 9.449405,51.97173 43.467262,8.31547 37.041661,-34.01785 c 0,0 -21.355649,-34.39584 -24.946423,-39.6875 C 74.083332,95.06101 50.270833,62.933034 50.270833,62.933034 Z"
       id="path1048" />
    <path
       style="fill:url(#linearGradient1026);fill-opacity:1;stroke:none;stroke-width:0.264583px;stroke-linecap:butt;stroke-linejoin:miter;stroke-opacity:1"
       d="M 50.970531,94.408706 20.221726,48.569939 54.239583,16.063988 l 49.703867,29.67113 0.75595,6.047621 z"
       id="path1018" />
    <path
       style="fill:url(#linearGradient1046);fill-opacity:1;stroke:none;stroke-width:0.264583px;stroke-linecap:butt;stroke-linejoin:miter;stroke-opacity:1"
       d="m 171.79018,34.773809 22.30059,41.955358 -17.03086,94.143013 -62.26061,-16.17195 2.18433,-42.06333 9.4494,-52.916662 z"
       id="path1038" />
    <path
       style="fill:url(#linearGradient1036);fill-opacity:1;stroke:none;stroke-width:0.264583px;stroke-linecap:butt;stroke-linejoin:miter;stroke-opacity:1"
       d="M 89.769343,61.043155 118.11756,19.843749 163.85268,42.711309 131.7247,94.116071 Z"
       id="path1028" />
  </g>
  <g
     id="layer2">
    <path
       style="fill:#ffffff;fill-opacity:1;stroke:#000000;stroke-width:0.264583px;stroke-linecap:butt;stroke-linejoin:miter;stroke-opacity:0"
       d="m 42.22859,67.084642 v -6.68173 c 0,0 0.534537,-11.75986 10.958049,-12.02713 10.423512,-0.26727 102.364231,0 102.364231,0 0,0 11.49258,-1.60361 11.49258,15.7689 V 156.8872 h -14.16528 c 0,0 -7.21628,-2.40541 -18.4416,-2.40541 -11.22532,0 -18.4416,2.67268 -22.45064,2.67268 H 82.31902 c 0,0 -2.13816,-1.87089 -5.879933,-1.87089 -3.741772,0 -10.423512,1.87089 -17.105249,1.87089 -6.681737,0 -10.423511,-1.60362 -10.423511,-1.60362 l -6.1472,-1.33635 v -22.71789 z"
       id="path32-7" />
  </g>
  <g
     id="layer1">
    <path
       id="path32"
       style="fill:#191919;fill-opacity:1;stroke:#000000;stroke-width:0.999999px;stroke-linecap:butt;stroke-linejoin:miter;stroke-opacity:0"
       d="m 340.74609,182.39453 c -66.85355,-0.0296 -124.95308,0.0645 -139.72656,0.44336 -39.39595,1.01015 -41.41601,45.45703 -41.41601,45.45703 v 25.25391 l 0.40429,48.71289 c 3.95731,-0.9122 12.89631,-3.86037 18.13867,-12.59766 6.86808,-11.44679 8.39369,-12.97066 9.91993,-18.3125 1.52624,-5.34183 7.63053,-22.89453 15.26171,-22.89453 1.9078,0 3.6252,-0.2379 5.31836,-0.25 v -0.002 c 5.07952,-0.0358 9.94609,1.96662 19.10352,18.56445 12.2099,22.13046 15.25977,20.60547 15.25977,20.60547 0,0 7.63251,2.28742 9.92187,-5.34375 2.28936,-7.63121 7.63134,-32.04938 19.07813,-32.8125 11.44679,-0.76312 20.60373,-6.6e-4 28.99804,20.60352 8.39431,20.60424 13.73565,38.1573 28.99805,45.02539 15.26238,6.86804 32.8144,10.68171 38.15625,5.33984 5.34181,-5.3418 10.68359,-20.60317 10.68359,-28.23438 0,-7.63116 5.34231,-21.36773 16.78907,-22.13085 11.44679,-0.76309 15.26141,4.57812 22.89257,4.57812 7.63121,0 15.26302,-0.76175 25.1836,4.58008 9.92054,5.34183 16.02539,-1.52756 16.02539,25.18164 -9.7129,-3.77862 -12.97255,-3.0525 -23.65625,0 -10.68367,3.05242 -20.60575,6.10563 -23.6582,19.8418 -3.0525,13.73612 -15.26128,34.33926 -38.91797,38.91797 -23.65668,4.5787 -43.49805,0.76562 -43.49805,0.76562 0,0 -1.70294,37.70774 12.0332,57.54883 l 0.93946,17.23633 12.9746,31.28711 h -11.44726 c 0,0 -6.86882,-24.42013 -14.5,-38.15625 -7.63121,-13.73617 -6.10547,-21.36719 -6.10547,-21.36719 0,0 -12.97115,-35.10375 -29.75977,-38.15625 -16.78861,-3.05246 -25.18359,22.89453 -25.18359,22.89453 0,0 -8.39451,15.26082 -13.73633,22.12891 -5.34184,6.86808 -0.76367,7.63086 -0.76367,7.63086 0,-10e-6 -15.76703,19.052 -15.00391,44.99804 l -11.69921,0.0176 c 0,0 9.15178,-35.09172 8.38867,-45.77539 0,0 11.44782,-15.26192 12.21094,-23.65625 0.76311,-8.39429 12.20898,-25.94727 12.20898,-25.94727 0,0 -41.2088,6.1059 -67.91797,-17.55078 -15.26239,-0.76312 -11.13786,15.2374 -17.55078,22.13086 -4.39576,4.72515 -9.60256,10.88217 -14.33203,14.06836 l 0.86328,103.97461 v 85.86328 l 23.23242,5.05078 c 0,0 14.14268,6.06055 39.39649,6.06055 25.25381,0 50.50826,-7.07031 64.65039,-7.07031 14.14214,0 22.22265,7.07031 22.22265,7.07031 h 112.12696 c 15.15227,0 42.42711,-10.09961 84.85351,-10.09961 42.42641,0 69.69922,9.08984 69.69922,9.08984 H 631.3457 V 242.4375 c 0,-65.65988 -43.4375,-59.59961 -43.4375,-59.59961 0,0 -135.73951,-0.39403 -247.16211,-0.44336 z"
       transform="scale(0.26458333)" />
    <rect
       style="fill:#ffffff;fill-opacity:1;stroke:none;stroke-width:0.264583;stroke-opacity:0"
       id="rect980"
       width="76.973618"
       height="9.6217022"
       x="48.108513"
       y="131.49661" />
  </g>
</svg>
